<?xml version="1.0" encoding="UTF-8"?>
<!DOCTYPE svg PUBLIC "-//W3C//DTD SVG 1.1//EN" "http://www.w3.org/Graphics/SVG/1.1/DTD/svg11.dtd">
<svg xmlns="http://www.w3.org/2000/svg" version="1.1" width="270px" height="104px" style="shape-rendering:geometricPrecision; text-rendering:geometricPrecision; image-rendering:optimizeQuality; fill-rule:evenodd; clip-rule:evenodd" xmlns:xlink="http://www.w3.org/1999/xlink">
<g><path style="opacity:0.995" fill="#f8b0b0" d="M 186.5,15.5 C 187.494,17.6583 188.828,19.6583 190.5,21.5C 186.676,25.7926 182.843,30.1259 179,34.5C 177.285,36.9354 176.118,39.6021 175.5,42.5C 175.389,43.1174 175.056,43.6174 174.5,44C 178.377,44.2565 182.043,45.2565 185.5,47C 188.767,51.3813 187.6,53.8813 182,54.5C 178.545,53.4496 175.045,53.2829 171.5,54C 167.012,57.3332 162.845,57.1666 159,53.5C 159.176,49.9007 159.509,46.234 160,42.5C 165.737,37.2075 170.904,31.3741 175.5,25C 171.833,24.6667 168.167,24.3333 164.5,24C 163.048,22.0417 162.715,20.0417 163.5,18C 162.687,16.6861 161.687,15.5195 160.5,14.5C 169.299,12.9989 177.966,13.3322 186.5,15.5 Z"/></g>
<g><path style="opacity:1" fill="#a4c8ed" d="M 100.5,40.5 C 102.607,41.4682 104.941,41.8016 107.5,41.5C 107.457,44.0878 106.457,46.2544 104.5,48C 96.1627,50.5382 87.8293,53.2048 79.5,56C 75.4918,57.1714 72.4918,56.0047 70.5,52.5C 71.1925,51.4822 71.8592,50.4822 72.5,49.5C 72.3347,45.8183 72.5014,42.1516 73,38.5C 75.715,36.8887 76.215,34.7221 74.5,32C 76.1655,27.0138 76.9989,21.8471 77,16.5C 77.3076,15.6919 77.8076,15.0253 78.5,14.5C 79.5237,15.8532 80.857,16.5198 82.5,16.5C 81.5816,25.1804 81.5816,33.8471 82.5,42.5C 83.8524,43.8962 85.5191,44.5629 87.5,44.5C 91.4649,43.7261 95.4649,43.3927 99.5,43.5C 99.2627,42.209 99.596,41.209 100.5,40.5 Z"/></g>
<g><path style="opacity:1" fill="#fad1d1" d="M 186.5,15.5 C 193.71,18.4032 194.21,22.0699 188,26.5C 184.066,32.0447 179.899,37.3781 175.5,42.5C 176.118,39.6021 177.285,36.9354 179,34.5C 182.843,30.1259 186.676,25.7926 190.5,21.5C 188.828,19.6583 187.494,17.6583 186.5,15.5 Z"/></g>
<g><path style="opacity:0.999" fill="#a0c6ed" d="M 39.5,55.5 C 38.213,54.2317 37.213,54.565 36.5,56.5C 34.9222,55.3595 33.2555,54.8595 31.5,55C 34.2545,56.5797 34.0878,57.7464 31,58.5C 27.7267,56.7098 24.2267,55.5431 20.5,55C 18.951,52.2893 16.951,50.1226 14.5,48.5C 13.1586,42.1616 11.4919,35.8283 9.5,29.5C 15.5092,29.3338 21.5092,29.5005 27.5,30C 33.3333,31.8333 37.1667,35.6667 39,41.5C 39.4992,46.1548 39.6658,50.8215 39.5,55.5 Z"/></g>
<g><path style="opacity:0.998" fill="#c7ddf4" d="M 100.5,40.5 C 99.596,41.209 99.2627,42.209 99.5,43.5C 95.4649,43.3927 91.4649,43.7261 87.5,44.5C 85.5191,44.5629 83.8524,43.8962 82.5,42.5C 81.5816,33.8471 81.5816,25.1804 82.5,16.5C 80.857,16.5198 79.5237,15.8532 78.5,14.5C 77.8076,15.0253 77.3076,15.6919 77,16.5C 76.9989,21.8471 76.1655,27.0138 74.5,32C 76.215,34.7221 75.715,36.8887 73,38.5C 72.5014,42.1516 72.3347,45.8183 72.5,49.5C 71.1888,36.8778 72.5221,24.5444 76.5,12.5C 79.1441,12.1601 81.4775,12.8267 83.5,14.5C 84.3025,23.4815 84.3025,32.4815 83.5,41.5C 88.17,40.9281 92.8367,40.2614 97.5,39.5C 98.7261,39.5195 99.7261,39.8529 100.5,40.5 Z"/></g>
<g><path style="opacity:0.943" fill="#ccbae8" d="M 128.5,23.5 C 131.777,23.2161 134.943,23.5495 138,24.5C 138.325,26.5527 137.991,28.5527 137,30.5C 135.294,31.3079 134.461,32.6412 134.5,34.5C 136.484,34.6168 138.15,33.9501 139.5,32.5C 140.736,33.2458 142.07,33.5792 143.5,33.5C 143.415,35.9288 142.415,37.9288 140.5,39.5C 141.735,42.9664 140.402,44.9664 136.5,45.5C 133.863,42.9584 131.529,43.1251 129.5,46C 121.428,47.2598 118.928,44.0931 122,36.5C 123.154,35.2567 124.488,34.2567 126,33.5C 125.245,29.8521 126.078,26.5187 128.5,23.5 Z M 127.5,39.5 C 131.243,39.4592 131.41,40.1259 128,41.5C 127.536,40.9056 127.369,40.2389 127.5,39.5 Z"/></g>
<g><path style="opacity:1" fill="#a3c8ed" d="M 237.5,55.5 C 226.722,55.5548 216.055,56.7214 205.5,59C 203.347,59.0995 201.681,59.9328 200.5,61.5C 195.574,62.7762 190.574,63.7762 185.5,64.5C 183.876,64.3601 182.71,65.0267 182,66.5C 180.612,65.4464 179.112,65.2797 177.5,66C 171.425,69.0773 165.259,71.9106 159,74.5C 155.502,75.3329 152.002,76.1663 148.5,77C 146.944,77.7202 145.944,78.8868 145.5,80.5C 145.167,80.5 144.833,80.5 144.5,80.5C 133.356,81.4702 122.189,82.1369 111,82.5C 99.7465,82.2802 88.5798,81.2802 77.5,79.5C 74.5483,77.2826 71.3816,75.2826 68,73.5C 60.6947,70.2976 53.1947,67.631 45.5,65.5C 44.5084,65.6716 43.8417,65.3382 43.5,64.5C 42.6528,62.1556 40.9861,60.6556 38.5,60C 41.4383,60.4462 44.4383,60.9462 47.5,61.5C 73.4556,68.8078 99.7889,70.3078 126.5,66C 150.824,60.6627 175.49,56.3294 200.5,53C 212.543,52.1348 224.543,52.4682 236.5,54C 237.056,54.3826 237.389,54.8826 237.5,55.5 Z"/></g>
<g><path style="opacity:1" fill="#f7bfc0" d="M 237.5,55.5 C 243.616,55.1762 249.616,55.8429 255.5,57.5C 256.713,57.7472 257.38,58.4138 257.5,59.5C 249.167,59.5 240.833,59.5 232.5,59.5C 234.292,58.6909 236.292,58.1909 238.5,58C 225.778,58.3053 213.112,59.472 200.5,61.5C 201.681,59.9328 203.347,59.0995 205.5,59C 216.055,56.7214 226.722,55.5548 237.5,55.5 Z"/></g>
<g><path style="opacity:1" fill="#f7abab" d="M 232.5,59.5 C 225.381,61.0467 218.381,63.2134 211.5,66C 210.635,67.3588 209.635,68.5255 208.5,69.5C 202.66,70.2788 196.993,71.7788 191.5,74C 186.831,76.3375 182.164,78.6708 177.5,81C 167.284,83.5123 156.951,84.8456 146.5,85C 148.859,83.7575 150.859,82.2575 152.5,80.5C 156.798,79.0691 160.798,77.0691 164.5,74.5C 165.492,74.6716 166.158,74.3382 166.5,73.5C 168.216,73.3713 169.883,73.038 171.5,72.5C 174.102,71.5491 176.435,70.2158 178.5,68.5C 178.833,68.5 179.167,68.5 179.5,68.5C 181.306,67.9759 182.972,67.3092 184.5,66.5C 185.167,66.5 185.5,66.1667 185.5,65.5C 185.5,65.1667 185.5,64.8333 185.5,64.5C 190.574,63.7762 195.574,62.7762 200.5,61.5C 213.112,59.472 225.778,58.3053 238.5,58C 236.292,58.1909 234.292,58.6909 232.5,59.5 Z"/></g>
<g><path style="opacity:0.633" fill="#d2e4f6" d="M 14.5,48.5 C 16.951,50.1226 18.951,52.2893 20.5,55C 24.2267,55.5431 27.7267,56.7098 31,58.5C 34.0878,57.7464 34.2545,56.5797 31.5,55C 33.2555,54.8595 34.9222,55.3595 36.5,56.5C 37.213,54.565 38.213,54.2317 39.5,55.5C 42.0365,57.678 44.7032,59.678 47.5,61.5C 44.4383,60.9462 41.4383,60.4462 38.5,60C 40.9861,60.6556 42.6528,62.1556 43.5,64.5C 42.8333,64.8333 42.1667,65.1667 41.5,65.5C 41.5,64.5 41.5,63.5 41.5,62.5C 35.4851,59.9042 29.4851,59.9042 23.5,62.5C 23.9443,60.8868 24.9443,59.7202 26.5,59C 20.4272,57.7546 16.4272,54.2546 14.5,48.5 Z"/></g>
<g><path style="opacity:0.157" fill="#fdeded" d="M 232.5,59.5 C 240.833,59.5 249.167,59.5 257.5,59.5C 240.675,59.8721 224.342,63.2054 208.5,69.5C 209.635,68.5255 210.635,67.3588 211.5,66C 218.381,63.2134 225.381,61.0467 232.5,59.5 Z"/></g>
<g><path style="opacity:0.999" fill="#a4c8ee" d="M 41.5,65.5 C 41.3304,68.204 39.9971,69.8707 37.5,70.5C 32.1712,73.2041 26.5046,74.0374 20.5,73C 19.6634,71.9887 19.33,70.8221 19.5,69.5C 19.5548,66.3855 20.8881,64.0522 23.5,62.5C 29.4851,59.9042 35.4851,59.9042 41.5,62.5C 41.5,63.5 41.5,64.5 41.5,65.5 Z"/></g>
<g><path style="opacity:0.212" fill="#dbe9f8" d="M 45.5,65.5 C 53.1947,67.631 60.6947,70.2976 68,73.5C 71.3816,75.2826 74.5483,77.2826 77.5,79.5C 72.7139,77.5499 67.7139,76.0499 62.5,75C 57.8551,71.9209 52.8551,69.5875 47.5,68C 46.6195,67.2917 45.9528,66.4584 45.5,65.5 Z"/></g>
<g><path style="opacity:0.31" fill="#e8f2fa" d="M 19.5,69.5 C 19.33,70.8221 19.6634,71.9887 20.5,73C 26.5046,74.0374 32.1712,73.2041 37.5,70.5C 36.9759,73.1878 35.3092,74.6878 32.5,75C 27.8644,74.8763 23.1977,74.7096 18.5,74.5C 18.2155,72.5853 18.5489,70.9187 19.5,69.5 Z"/></g>
<g><path style="opacity:0.043" fill="#e5ecf8" d="M 185.5,64.5 C 185.5,64.8333 185.5,65.1667 185.5,65.5C 183.776,65.4607 183.443,65.794 184.5,66.5C 182.972,67.3092 181.306,67.9759 179.5,68.5C 179.167,67.1667 178.833,67.1667 178.5,68.5C 176.435,70.2158 174.102,71.5491 171.5,72.5C 169.662,71.3217 167.995,71.655 166.5,73.5C 165.508,73.3284 164.842,73.6618 164.5,74.5C 158.075,76.2126 151.742,78.2126 145.5,80.5C 145.944,78.8868 146.944,77.7202 148.5,77C 152.002,76.1663 155.502,75.3329 159,74.5C 165.259,71.9106 171.425,69.0773 177.5,66C 179.112,65.2797 180.612,65.4464 182,66.5C 182.71,65.0267 183.876,64.3601 185.5,64.5 Z"/></g>
<g><path style="opacity:0.412" fill="#e4f0fb" d="M 77.5,79.5 C 88.5798,81.2802 99.7465,82.2802 111,82.5C 122.189,82.1369 133.356,81.4702 144.5,80.5C 122.089,87.3019 99.7555,86.9686 77.5,79.5 Z"/></g>
<g><path style="opacity:0.987" fill="#fdcbca" d="M 208.5,69.5 C 187.565,80.9727 165.065,87.306 141,88.5C 134.46,88.4785 127.96,87.9785 121.5,87C 128.718,85.7246 136.051,84.5579 143.5,83.5C 146.324,81.9478 149.324,80.9478 152.5,80.5C 150.859,82.2575 148.859,83.7575 146.5,85C 156.951,84.8456 167.284,83.5123 177.5,81C 182.164,78.6708 186.831,76.3375 191.5,74C 196.993,71.7788 202.66,70.2788 208.5,69.5 Z"/></g>
</svg>
